<?xml version="1.0" encoding="UTF-8"?>
<svg width="100pt" height="100pt" version="1.1" viewBox="0 0 100 100" xmlns="http://www.w3.org/2000/svg">
 <g>
  <path d="m100 50c0 27.613-22.387 50-50 50s-50-22.387-50-50 22.387-50 50-50 50 22.387 50 50" fill="#405260"/>
  <path d="m50 68.895c2.8867 0 5.2461-2.3633 5.2461-5.2461 0-2.8867-2.3633-5.2461-5.2461-5.2461-2.8867 0-5.2461 2.3633-5.2461 5.2461-0.003906 2.8828 2.3594 5.2461 5.2461 5.2461z" fill="#fff"/>
  <path d="m79.652 38.715-11.285-18.367c-0.52344-0.78906-1.3125-1.1797-2.2305-1.1797h-32.406c-0.91797 0-1.707 0.52344-2.2305 1.1797l-11.152 18.367z" fill="#fff"/>
  <path d="m28.352 78.207c0 1.4414 1.1797 2.625 2.625 2.625h38.18c1.4414 0 2.625-1.1797 2.625-2.625l-0.003906-34.375h-43.297l0.003906 34.375zm21.648-24.926c5.7734 0 10.363 4.5938 10.363 10.363 0 5.7734-4.5938 10.363-10.363 10.363-5.7734 0-10.363-4.5938-10.363-10.363 0-5.7734 4.5898-10.363 10.363-10.363z" fill="#fff"/>
 </g>
</svg>
