<?xml version="1.0" encoding="UTF-8"?>
<svg width="512pt" height="512pt" version="1.1" viewBox="0 0 512 512" xmlns="http://www.w3.org/2000/svg">
 <g fill="#eb5b52">
  <path d="m256 0c-33.617 0-66.906 6.6211-97.965 19.488-31.062 12.863-59.281 31.719-83.055 55.492-23.773 23.773-42.629 51.992-55.492 83.055-12.867 31.059-19.488 64.348-19.488 97.965 0 67.895 26.973 133.01 74.98 181.02 48.012 48.008 113.12 74.98 181.02 74.98s133.01-26.973 181.02-74.98c48.008-48.008 74.98-113.12 74.98-181.02s-26.973-133.01-74.98-181.02c-48.008-48.008-113.12-74.98-181.02-74.98zm0 28.91c29.492 0 58.695 5.875 85.941 17.289 27.246 11.41 52.004 28.137 72.855 49.227 20.855 21.086 37.395 46.121 48.684 73.672 11.285 27.551 17.094 57.082 17.094 86.902 0 60.227-23.66 117.99-65.777 160.57-42.113 42.59-99.234 66.512-158.8 66.516-29.488 0-58.691-5.875-85.941-17.289-27.246-11.41-52-28.137-72.855-49.227-20.852-21.086-37.395-46.121-48.68-73.672-11.289-27.551-17.098-57.078-17.098-86.902 0-29.82 5.8086-59.352 17.094-86.902 11.289-27.551 27.828-52.586 48.684-73.672 20.852-21.09 45.609-37.816 72.855-49.23 27.25-11.41 56.453-17.285 85.941-17.285z"/>
  <path d="m401.14 230.5-141.07-107.48c-2.4023-1.8242-5.7305-1.8242-8.1328 0l-141.07 107.48c-2.2969 1.7461-3.2227 4.7617-2.3008 7.4922 0.92188 2.7344 3.4844 4.5742 6.3672 4.5742h33.59v141.07c0 1.7812 0.70703 3.4922 1.9688 4.75 1.2578 1.2617 2.9688 1.9688 4.75 1.9648h201.53c1.7812 0.003906 3.4922-0.70312 4.75-1.9648 1.2617-1.2578 1.9688-2.9688 1.9688-4.75v-141.07h33.586c2.8828 0 5.4453-1.8398 6.3672-4.5742 0.92188-2.7305-0.003906-5.7461-2.3008-7.4922zm-104.83 65.805h-26.871v26.871h-26.867v-26.871h-26.871v-26.871h26.871v-26.867h26.871v26.871h26.871z"/>
 </g>
</svg>
