<svg width="898" height="348" xmlns="http://www.w3.org/2000/svg" xmlns:xlink="http://www.w3.org/1999/xlink" xml:space="preserve" overflow="hidden"><defs><clipPath id="clip0"><rect x="330" y="82" width="898" height="348"/></clipPath></defs><g clip-path="url(#clip0)" transform="translate(-330 -82)"><path d="M337 328.5C337 282.937 373.936 246 419.5 246 465.063 246 502 282.937 502 328.5 502 374.064 465.063 411 419.5 411 373.936 411 337 374.064 337 328.5Z" stroke="#3670EC" stroke-width="13.75" stroke-linecap="butt" stroke-linejoin="miter" stroke-miterlimit="8" stroke-opacity="1" fill="#6691E8" fill-rule="evenodd" fill-opacity="1"/><path d="M571 296C571 227.517 626.517 172 695 172 763.483 172 819 227.517 819 296 819 364.483 763.483 420 695 420 626.517 420 571 364.483 571 296Z" stroke="#3670EC" stroke-width="13.75" stroke-linecap="butt" stroke-linejoin="miter" stroke-miterlimit="8" stroke-opacity="1" fill="#6691E8" fill-rule="evenodd" fill-opacity="1"/><path d="M888 255C888 163.873 961.873 90.0001 1053 90.0001 1144.13 90.0001 1218 163.873 1218 255 1218 346.127 1144.13 420 1053 420 961.873 420 888 346.127 888 255Z" stroke="#3670EC" stroke-width="13.75" stroke-linecap="butt" stroke-linejoin="miter" stroke-miterlimit="8" stroke-opacity="1" fill="#6691E8" fill-rule="evenodd" fill-opacity="1"/></g></svg>