<?xml version="1.0" encoding="UTF-8"?>
<svg width="512pt" height="512pt" version="1.1" viewBox="0 0 512 512" xmlns="http://www.w3.org/2000/svg">
 <defs>
  <clipPath id="a">
   <path d="m94.781 97h322.44v318h-322.44z"/>
  </clipPath>
 </defs>
 <path d="m256 0c-33.617 0-66.906 6.6211-97.965 19.488-31.062 12.863-59.281 31.719-83.055 55.492-23.773 23.773-42.629 51.992-55.492 83.055-12.867 31.059-19.488 64.348-19.488 97.965 0 67.895 26.973 133.01 74.98 181.02 48.012 48.008 113.12 74.98 181.02 74.98s133.01-26.973 181.02-74.98c48.008-48.008 74.98-113.12 74.98-181.02s-26.973-133.01-74.98-181.02c-48.008-48.008-113.12-74.98-181.02-74.98zm0 28.91c29.492 0 58.695 5.875 85.941 17.289 27.246 11.41 52.004 28.137 72.855 49.227 20.855 21.086 37.395 46.121 48.684 73.672 11.285 27.551 17.094 57.082 17.094 86.902 0 60.227-23.66 117.99-65.777 160.57-42.113 42.59-99.234 66.512-158.8 66.516-29.488 0-58.691-5.875-85.941-17.289-27.246-11.41-52-28.137-72.855-49.227-20.852-21.086-37.395-46.121-48.68-73.672-11.289-27.551-17.098-57.078-17.098-86.902 0-29.82 5.8086-59.352 17.094-86.902 11.289-27.551 27.828-52.586 48.684-73.672 20.852-21.09 45.609-37.816 72.855-49.23 27.25-11.41 56.453-17.285 85.941-17.285z" fill="#eb5b52"/>
 <path d="m256 232.97c23.988 0 43.504-19.516 43.504-43.504 0-23.988-19.516-43.504-43.504-43.504s-43.504 19.516-43.504 43.504c0 23.988 19.516 43.504 43.504 43.504zm-30.707-51.18c0-1.4141 1.1445-2.5586 2.5586-2.5586h17.914v-17.914c0-1.4141 1.1445-2.5586 2.5586-2.5586h15.355c1.4141 0 2.5586 1.1445 2.5586 2.5586v17.914h17.914c1.4141 0 2.5586 1.1445 2.5586 2.5586v15.355c0 1.4141-1.1445 2.5586-2.5586 2.5586h-17.914v17.914c0 1.4141-1.1445 2.5586-2.5586 2.5586h-15.355c-1.4141 0-2.5586-1.1445-2.5586-2.5586v-17.914h-17.914c-1.4141 0-2.5586-1.1445-2.5586-2.5586z" fill="#eb5b52"/>
 <g clip-path="url(#a)">
  <path d="m414.66 409.54h-15.355v-312.2h-76.77v312.2h-5.1172v-281.5h-122.84v281.49h-5.1172v-312.2h-76.77v312.2h-15.355c-1.4141 0-2.5586 1.1445-2.5586 2.5586 0 1.4141 1.1445 2.5586 2.5586 2.5586h317.32c1.4141 0 2.5586-1.1445 2.5586-2.5586 0-1.4141-1.1445-2.5586-2.5586-2.5586zm-273.82-289.17c0-1.4141 1.1445-2.5586 2.5586-2.5586h15.355c1.4141 0 2.5586 1.1445 2.5586 2.5586v15.355c0 1.4141-1.1445 2.5586-2.5586 2.5586h-15.355c-1.4141 0-2.5586-1.1445-2.5586-2.5586zm0 38.387c0-1.4141 1.1445-2.5586 2.5586-2.5586h15.355c1.4141 0 2.5586 1.1445 2.5586 2.5586v15.355c0 1.4141-1.1445 2.5586-2.5586 2.5586h-15.355c-1.4141 0-2.5586-1.1445-2.5586-2.5586zm33.266 227.75h-46.062c-1.4141 0-2.5586-1.1445-2.5586-2.5586s1.1445-2.5586 2.5586-2.5586h46.062c1.4141 0 2.5586 1.1445 2.5586 2.5586 0.003906 1.4102-1.1445 2.5586-2.5586 2.5586zm-30.707-40.945h15.355c1.4141 0 2.5586 1.1445 2.5586 2.5586v15.355c0 1.4141-1.1445 2.5586-2.5586 2.5586h-15.355c-1.4141 0-2.5586-1.1445-2.5586-2.5586v-15.355c0-1.4141 1.1445-2.5586 2.5586-2.5586zm-2.5586-20.473v-15.355c0-1.4141 1.1445-2.5586 2.5586-2.5586h15.355c1.4141 0 2.5586 1.1445 2.5586 2.5586v15.355c0 1.4141-1.1445 2.5586-2.5586 2.5586h-15.355c-1.4141 0-2.5586-1.1445-2.5586-2.5586zm33.266-33.266h-46.062c-1.4141 0-2.5586-1.1445-2.5586-2.5586 0-1.4141 1.1445-2.5586 2.5586-2.5586h46.062c1.4141 0 2.5586 1.1445 2.5586 2.5586 0.003906 1.4102-1.1445 2.5586-2.5586 2.5586zm-30.707-40.945h15.355c1.4141 0 2.5586 1.1445 2.5586 2.5586v15.355c0 1.4141-1.1445 2.5586-2.5586 2.5586h-15.355c-1.4141 0-2.5586-1.1445-2.5586-2.5586v-15.355c0-1.4141 1.1445-2.5586 2.5586-2.5586zm-2.5586-20.473v-15.355c0-1.4141 1.1445-2.5586 2.5586-2.5586h15.355c1.4141 0 2.5586 1.1445 2.5586 2.5586v15.355c0 1.4141-1.1445 2.5586-2.5586 2.5586h-15.355c-1.4141 0-2.5586-1.1445-2.5586-2.5586zm33.266-33.27h-46.062c-1.4141 0-2.5586-1.1445-2.5586-2.5586 0-1.4141 1.1445-2.5586 2.5586-2.5586h46.062c1.4141 0 2.5586 1.1445 2.5586 2.5586 0.003906 1.4141-1.1445 2.5586-2.5586 2.5586zm133.07 58.859v15.355c0 1.4141-1.1445 2.5586-2.5586 2.5586h-15.355c-1.4141 0-2.5586-1.1445-2.5586-2.5586v-15.355c0-1.4141 1.1445-2.5586 2.5586-2.5586h15.355c1.4141 0 2.5586 1.1445 2.5586 2.5586zm0 35.828v15.355c0 1.4141-1.1445 2.5586-2.5586 2.5586h-15.355c-1.4141 0-2.5586-1.1445-2.5586-2.5586v-15.355c0-1.4141 1.1445-2.5586 2.5586-2.5586h15.355c1.4141 0 2.5586 1.1445 2.5586 2.5586zm-51.18-150.98c26.809 0 48.621 21.812 48.621 48.621s-21.812 48.621-48.621 48.621-48.621-21.812-48.621-48.621 21.812-48.621 48.621-48.621zm17.914 133.07h-35.828c-1.4141 0-2.5586-1.1445-2.5586-2.5586v-15.355c0-1.4141 1.1445-2.5586 2.5586-2.5586h35.828c1.4141 0 2.5586 1.1445 2.5586 2.5586v15.355c0 1.4141-1.1445 2.5586-2.5586 2.5586zm2.5586 17.914v15.355c0 1.4141-1.1445 2.5586-2.5586 2.5586h-35.828c-1.4141 0-2.5586-1.1445-2.5586-2.5586v-15.355c0-1.4141 1.1445-2.5586 2.5586-2.5586h35.828c1.4141 0 2.5586 1.1445 2.5586 2.5586zm-71.652-35.828c0-1.4141 1.1445-2.5586 2.5586-2.5586h15.355c1.4141 0 2.5586 1.1445 2.5586 2.5586v15.355c0 1.4141-1.1445 2.5586-2.5586 2.5586h-15.355c-1.4141 0-2.5586-1.1445-2.5586-2.5586zm0 35.828c0-1.4141 1.1445-2.5586 2.5586-2.5586h15.355c1.4141 0 2.5586 1.1445 2.5586 2.5586v15.355c0 1.4141-1.1445 2.5586-2.5586 2.5586h-15.355c-1.4141 0-2.5586-1.1445-2.5586-2.5586zm104.92 117.71h-5.1172v-38.387h-25.59v38.387h-5.1172v-38.387h-35.828v38.387h-5.1172v-38.387h-23.031v38.387h-5.1172v-40.945c0-1.4141 1.1445-2.5586 2.5586-2.5586h99.801c1.4141 0 2.5586 1.1445 2.5586 2.5586zm-2.5586-76.773h-102.36c-1.4141 0-2.5586-1.1445-2.5586-2.5586 0-1.4141 1.1445-2.5586 2.5586-2.5586h102.36c1.4141 0 2.5586 1.1445 2.5586 2.5586 0 1.4141-1.1445 2.5586-2.5586 2.5586zm43.504-212.4c0-1.4141 1.1445-2.5586 2.5586-2.5586h15.355c1.4141 0 2.5586 1.1445 2.5586 2.5586v15.355c0 1.4141-1.1445 2.5586-2.5586 2.5586h-15.355c-1.4141 0-2.5586-1.1445-2.5586-2.5586zm0 38.387c0-1.4141 1.1445-2.5586 2.5586-2.5586h15.355c1.4141 0 2.5586 1.1445 2.5586 2.5586v15.355c0 1.4141-1.1445 2.5586-2.5586 2.5586h-15.355c-1.4141 0-2.5586-1.1445-2.5586-2.5586zm33.27 227.75h-46.062c-1.4141 0-2.5586-1.1445-2.5586-2.5586s1.1445-2.5586 2.5586-2.5586h46.062c1.4141 0 2.5586 1.1445 2.5586 2.5586 0 1.4102-1.1484 2.5586-2.5586 2.5586zm-30.711-40.945h15.355c1.4141 0 2.5586 1.1445 2.5586 2.5586v15.355c0 1.4141-1.1445 2.5586-2.5586 2.5586h-15.355c-1.4141 0-2.5586-1.1445-2.5586-2.5586v-15.355c0-1.4141 1.1484-2.5586 2.5586-2.5586zm-2.5586-20.473v-15.355c0-1.4141 1.1445-2.5586 2.5586-2.5586h15.355c1.4141 0 2.5586 1.1445 2.5586 2.5586v15.355c0 1.4141-1.1445 2.5586-2.5586 2.5586h-15.355c-1.4102 0-2.5586-1.1445-2.5586-2.5586zm33.27-33.266h-46.062c-1.4141 0-2.5586-1.1445-2.5586-2.5586 0-1.4141 1.1445-2.5586 2.5586-2.5586h46.062c1.4141 0 2.5586 1.1445 2.5586 2.5586 0 1.4102-1.1484 2.5586-2.5586 2.5586zm-30.711-40.945h15.355c1.4141 0 2.5586 1.1445 2.5586 2.5586v15.355c0 1.4141-1.1445 2.5586-2.5586 2.5586h-15.355c-1.4141 0-2.5586-1.1445-2.5586-2.5586v-15.355c0-1.4141 1.1484-2.5586 2.5586-2.5586zm-2.5586-20.473v-15.355c0-1.4141 1.1445-2.5586 2.5586-2.5586h15.355c1.4141 0 2.5586 1.1445 2.5586 2.5586v15.355c0 1.4141-1.1445 2.5586-2.5586 2.5586h-15.355c-1.4102 0-2.5586-1.1445-2.5586-2.5586zm33.27-33.27h-46.062c-1.4141 0-2.5586-1.1445-2.5586-2.5586 0-1.4141 1.1445-2.5586 2.5586-2.5586h46.062c1.4141 0 2.5586 1.1445 2.5586 2.5586 0 1.4141-1.1484 2.5586-2.5586 2.5586z" fill="#eb5b52"/>
 </g>
</svg>
