<svg width="898" height="348" xmlns="http://www.w3.org/2000/svg" xmlns:xlink="http://www.w3.org/1999/xlink" xml:space="preserve" overflow="hidden"><defs><clipPath id="clip0"><rect x="330" y="536" width="898" height="348"/></clipPath></defs><g clip-path="url(#clip0)" transform="translate(-330 -536)"><path d="M337 785.5C337 739.936 373.936 703 419.5 703 465.063 703 502 739.936 502 785.5 502 831.063 465.063 868 419.5 868 373.936 868 337 831.063 337 785.5Z" stroke="#AC2B25" stroke-width="13.75" stroke-linecap="butt" stroke-linejoin="miter" stroke-miterlimit="8" stroke-opacity="1" fill="#BC5E5A" fill-rule="evenodd" fill-opacity="1"/><path d="M571 753C571 684.517 626.517 629 695 629 763.483 629 819 684.517 819 753 819 821.483 763.483 877 695 877 626.517 877 571 821.483 571 753Z" stroke="#AC2B25" stroke-width="13.75" stroke-linecap="butt" stroke-linejoin="miter" stroke-miterlimit="8" stroke-opacity="1" fill="#BC5E5A" fill-rule="evenodd" fill-opacity="1"/><path d="M888 712C888 620.873 961.873 547 1053 547 1144.13 547 1218 620.873 1218 712 1218 803.127 1144.13 877 1053 877 961.873 877 888 803.127 888 712Z" stroke="#AC2B25" stroke-width="13.75" stroke-linecap="butt" stroke-linejoin="miter" stroke-miterlimit="8" stroke-opacity="1" fill="#BC5E5A" fill-rule="evenodd" fill-opacity="1"/></g></svg>