<?xml version="1.0" encoding="UTF-8"?>
<svg width="512pt" height="512pt" version="1.1" viewBox="0 0 512 512" xmlns="http://www.w3.org/2000/svg">
 <g fill="#eb5b52">
  <path d="m256 0c-33.617 0-66.906 6.6211-97.965 19.488-31.062 12.863-59.281 31.719-83.055 55.492-23.773 23.773-42.629 51.992-55.492 83.055-12.867 31.059-19.488 64.348-19.488 97.965 0 67.895 26.973 133.01 74.98 181.02 48.012 48.008 113.12 74.98 181.02 74.98s133.01-26.973 181.02-74.98c48.008-48.008 74.98-113.12 74.98-181.02s-26.973-133.01-74.98-181.02c-48.008-48.008-113.12-74.98-181.02-74.98zm0 28.91c29.492 0 58.695 5.875 85.941 17.289 27.246 11.41 52.004 28.137 72.855 49.227 20.855 21.086 37.395 46.121 48.684 73.672 11.285 27.551 17.094 57.082 17.094 86.902 0 60.227-23.66 117.99-65.777 160.57-42.113 42.59-99.234 66.512-158.8 66.516-29.488 0-58.691-5.875-85.941-17.289-27.246-11.41-52-28.137-72.855-49.227-20.852-21.086-37.395-46.121-48.68-73.672-11.289-27.551-17.098-57.078-17.098-86.902 0-29.82 5.8086-59.352 17.094-86.902 11.289-27.551 27.828-52.586 48.684-73.672 20.852-21.09 45.609-37.816 72.855-49.23 27.25-11.41 56.453-17.285 85.941-17.285z"/>
  <path d="m373.07 224.83h-60.492l34.008-44.645c3.5234-4.625 4.3125-10.777 2.0703-16.141-2.2461-5.3633-7.1797-9.1211-12.945-9.8594s-11.488 1.6562-15.008 6.2773l-49.035 64.367h-132.73c-6.0273 0-11.598 3.2188-14.613 8.4375-3.0117 5.2227-3.0117 11.652 0 16.875 3.0156 5.2188 8.5859 8.4375 14.613 8.4375h1.2188c5.5938 38.828 30.254 71.492 64.188 88.203h-11.449c-2.5156 0-4.9297 1-6.7109 2.7812-1.7773 1.7773-2.7773 4.1914-2.7734 6.7109 0 5.2383 4.2461 9.4844 9.4844 9.4844h126.22c5.2383 0 9.4883-4.2461 9.4883-9.4844 0-5.2422-4.25-9.4883-9.4883-9.4883h-11.449c33.934-16.715 58.594-49.379 64.188-88.207h1.207c6.0273 0 11.598-3.2188 14.613-8.4375 3.0156-5.2227 3.0156-11.652 0-16.875-3.0156-5.2188-8.5859-8.4375-14.613-8.4375zm-80.531 53.637v25.824h-23.625v23.625h-25.824v-23.625h-23.625v-25.824h23.625v-23.625h25.824v23.625z"/>
 </g>
</svg>
