<?xml version="1.0" encoding="UTF-8"?>
<svg width="512pt" height="512pt" version="1.1" viewBox="0 0 512 512" xmlns="http://www.w3.org/2000/svg">
 <g fill="#e29536">
  <path d="m256 0c-33.617 0-66.906 6.6211-97.965 19.488-31.062 12.863-59.281 31.719-83.055 55.492-23.773 23.773-42.629 51.992-55.492 83.055-12.867 31.059-19.488 64.348-19.488 97.965 0 67.895 26.973 133.01 74.98 181.02 48.012 48.008 113.12 74.98 181.02 74.98s133.01-26.973 181.02-74.98c48.008-48.008 74.98-113.12 74.98-181.02s-26.973-133.01-74.98-181.02c-48.008-48.008-113.12-74.98-181.02-74.98zm0 28.91c29.492 0 58.695 5.875 85.941 17.289 27.246 11.41 52.004 28.137 72.855 49.227 20.855 21.086 37.395 46.121 48.684 73.672 11.285 27.551 17.094 57.082 17.094 86.902 0 60.227-23.66 117.99-65.777 160.57-42.113 42.59-99.234 66.512-158.8 66.516-29.488 0-58.691-5.875-85.941-17.289-27.246-11.41-52-28.137-72.855-49.227-20.852-21.086-37.395-46.121-48.68-73.672-11.289-27.551-17.098-57.078-17.098-86.902 0-29.82 5.8086-59.352 17.094-86.902 11.289-27.551 27.828-52.586 48.684-73.672 20.852-21.09 45.609-37.816 72.855-49.23 27.25-11.41 56.453-17.285 85.941-17.285z"/>
  <path d="m386.99 397.07h-261.98c-5.5664 0-10.078-4.5117-10.078-10.074 0-5.5664 4.5117-10.078 10.078-10.078h261.98c5.5625 0 10.074 4.5117 10.074 10.078 0 5.5625-4.5117 10.074-10.074 10.074z"/>
  <path d="m205.62 366.84v-70.535c0-5.5664 4.5078-10.074 10.074-10.074h80.609c2.6719 0 5.2344 1.0586 7.125 2.9492 1.8906 1.8906 2.9531 4.4531 2.9531 7.125v70.535h60.457v-90.688c0-3.0625-1.3945-5.957-3.7852-7.8672l-100.76-80.609c-3.6797-2.9414-8.9062-2.9414-12.586 0l-100.76 80.609c-2.3906 1.9102-3.7852 4.8047-3.7812 7.8672v90.688zm50.383-120.96h-0.003906c4.0938 0 7.7891 2.4688 9.3555 6.25 1.5664 3.7852 0.69922 8.1406-2.1953 11.035-2.8945 2.8945-7.25 3.7617-11.035 2.1953-3.7812-1.5664-6.25-5.2617-6.25-9.3555 0.019531-5.582 4.543-10.105 10.125-10.125z"/>
  <path d="m296.3 366.84v-60.457c0-2.6758-1.0625-5.2383-2.9492-7.125-1.8906-1.8906-4.4531-2.9531-7.125-2.9531h-60.457c-5.5664 0-10.078 4.5117-10.078 10.078v60.457z"/>
  <path d="m306.38 114.93h-30.23v60.457h30.23c2.6719 0 5.2344-1.0625 7.125-2.9492 1.8867-1.8906 2.9492-4.4531 2.9492-7.125v-40.305c0-2.6758-1.0625-5.2383-2.9492-7.125-1.8906-1.8906-4.4531-2.9531-7.125-2.9531z"/>
  <path d="m249.71 177.6c3.6797-2.9453 8.9062-2.9453 12.586 0l3.7852 3.0234v-55.613c0-5.5664-4.5117-10.078-10.078-10.078s-10.074 4.5117-10.074 10.078v55.613z"/>
 </g>
</svg>
