<?xml version="1.0" encoding="UTF-8"?>
<svg width="100pt" height="100pt" version="1.1" viewBox="0 0 100 100" xmlns="http://www.w3.org/2000/svg">
 <g>
  <path d="m100 50c0 27.613-22.387 50-50 50s-50-22.387-50-50 22.387-50 50-50 50 22.387 50 50" fill="#b8b8b8"/>
  <path d="m50 54.785c-0.82031 0-1.5742-0.125-2.3945-0.31641l-14.988-3.9688v10.77c0 0.75391 0.44141 1.5117 1.1328 1.8281 2.1406 1.0078 7.4297 3.0859 16.246 3.0859s14.105-2.0156 16.246-3.0859c0.69141-0.37891 1.1328-1.0703 1.1328-1.8281l0.007812-10.766-14.988 3.9688c-0.82031 0.1875-1.5742 0.3125-2.3945 0.3125z" fill="#fff"/>
  <path d="m79.094 41.371-27.711-7.3672c-0.94531-0.25-1.8906-0.25-2.832 0l-27.711 7.3672c-1.0703 0.25-1.0703 1.7617 0 2.0781l27.711 7.3672c0.94531 0.25 1.8906 0.25 2.832 0l20.973-5.543v7.6211c-1.1328 0.44141-2.0156 1.5117-2.0156 2.832 0 1.6992 1.3867 3.0234 3.0234 3.0234 1.6992 0 3.0234-1.3867 3.0234-3.0234 0-1.3242-0.82031-2.3945-2.0156-2.832v-8.1875l4.6602-1.2578c1.1328-0.3125 1.1328-1.8242 0.0625-2.0781z" fill="#fff"/>
 </g>
</svg>
