<?xml version="1.0" encoding="UTF-8"?>
<svg width="512pt" height="512pt" version="1.1" viewBox="0 0 512 512" xmlns="http://www.w3.org/2000/svg">
 <g fill="#e29536">
  <path d="m256 0c-33.617 0-66.906 6.6211-97.965 19.488-31.062 12.863-59.281 31.719-83.055 55.492-23.773 23.773-42.629 51.992-55.492 83.055-12.867 31.059-19.488 64.348-19.488 97.965 0 67.895 26.973 133.01 74.98 181.02 48.012 48.008 113.12 74.98 181.02 74.98s133.01-26.973 181.02-74.98c48.008-48.008 74.98-113.12 74.98-181.02s-26.973-133.01-74.98-181.02c-48.008-48.008-113.12-74.98-181.02-74.98zm0 28.91c29.492 0 58.695 5.875 85.941 17.289 27.246 11.41 52.004 28.137 72.855 49.227 20.855 21.086 37.395 46.121 48.684 73.672 11.285 27.551 17.094 57.082 17.094 86.902 0 60.227-23.66 117.99-65.777 160.57-42.113 42.59-99.234 66.512-158.8 66.516-29.488 0-58.691-5.875-85.941-17.289-27.246-11.41-52-28.137-72.855-49.227-20.852-21.086-37.395-46.121-48.68-73.672-11.289-27.551-17.098-57.078-17.098-86.902 0-29.82 5.8086-59.352 17.094-86.902 11.289-27.551 27.828-52.586 48.684-73.672 20.852-21.09 45.609-37.816 72.855-49.23 27.25-11.41 56.453-17.285 85.941-17.285z"/>
  <path d="m108.21 373.34h97.152v-114.95h-97.152zm59.914-100.4h18.137v18.137h-18.137zm0 33.855h18.137v18.137h-18.137zm0 33.867h18.137v18.137h-18.137zm-40.816-67.723h18.145v18.137h-18.145zm0 33.855h18.145v18.137h-18.145zm0 33.867h18.145v18.137h-18.145z"/>
  <path d="m108.21 248.82h97.152v-27.711h-79.703z"/>
  <path d="m306.63 373.34h97.152v-114.95h-97.152zm59.91-100.4h18.145v18.137h-18.145zm0 33.855h18.145v18.137h-18.145zm0 33.867h18.145v18.137h-18.145zm-40.816-67.723h18.137v18.137h-18.137zm0 33.855h18.137v18.137h-18.137zm0 33.867h18.137v18.137h-18.137z"/>
  <path d="m386.34 221.11h-79.703v27.711h97.152z"/>
  <path d="m251.55 138.66v45.574l-35.227 30.379v158.73h22.848v-62.113l16.828-14.523 16.84 14.508v62.113h22.848v-158.73l-35.234-30.371v-12.727h41.73l-15.738-16.418 15.738-16.418h-50.633zm20.867 101.95c0 9.0625-7.3438 16.418-16.418 16.418s-16.418-7.3516-16.418-16.418c0-9.0625 7.3438-16.418 16.418-16.418s16.418 7.3516 16.418 16.418z"/>
 </g>
</svg>
