<?xml version="1.0" encoding="UTF-8"?>
<svg width="512pt" height="512pt" version="1.1" viewBox="0 0 512 512" xmlns="http://www.w3.org/2000/svg">
 <path d="m126.21 277.96 129.79 196.91 129.79-196.91c20.672-31.387 29.273-69.199 24.207-106.44-5.0703-37.238-23.461-71.379-51.773-96.098-28.309-24.719-64.617-38.34-102.2-38.34-37.586 0-73.895 13.621-102.2 38.34-28.309 24.719-46.703 58.859-51.77 96.098-5.0703 37.238 3.5312 75.051 24.203 106.44zm129.79-165.32c20.816 0 40.781 8.2695 55.5 22.988s22.988 34.684 22.988 55.5-8.2695 40.781-22.988 55.5c-14.719 14.723-34.684 22.992-55.5 22.992s-40.781-8.2695-55.5-22.992c-14.719-14.719-22.988-34.684-22.988-55.5 0.027343-20.809 8.3047-40.758 23.02-55.469 14.711-14.715 34.66-22.992 55.469-23.02z" fill="#3c874b"/>
</svg>
